<svg xmlns="http://www.w3.org/2000/svg" fill="none" viewBox="0 0 48 48"><rect width="48" height="48" fill="#419fd9" rx="24"/><path fill="#fff" d="M34.019 12.19c.026-.012 2.027-.899 2.062.594L31.642 35.08s-.63 1.538-2.307.804l-6.29-4.822-4.054 3.669s-.315.245-.664.105c-.01-.001-.32-.052-.665-1.188-.383-1.187-2.265-7.353-2.271-7.374l-6.256-2.097c-.014-.005-.944-.356-1.048-1.084-.104-.734 1.083-1.153 1.083-1.153zm-2.762 4.543c.035-.518-.818-.012-.838 0L16.684 25.47a.514.514 0 0 0-.209.594l1.643 5.382c.104.314.559.28.629-.07l.383-3.285c0-.14.07-.244.175-.314 1.328-1.188 11.213-10.06 11.638-10.485.454-.489.314-.56.314-.56"/></svg>