<svg xmlns="http://www.w3.org/2000/svg" fill="none" viewBox="0 0 90 90"><path fill="#e30613" d="M67.46 43.552a.37.37 0 0 1-.19-.046c-.228-.109-.328-.372-.228-.599a24 24 0 0 0 1.308-3.532.47.47 0 0 1 .29-.309l4.041-1.371a2.38 2.38 0 0 0 1.626-2.261v-5.385a2.38 2.38 0 0 0-1.626-2.26l-4.04-1.372a.43.43 0 0 1-.291-.308 24 24 0 0 0-2.152-5.185.47.47 0 0 1-.01-.427l1.89-3.823a2.39 2.39 0 0 0-.455-2.751l-3.813-3.814a2.39 2.39 0 0 0-2.752-.454l-3.822 1.889a.45.45 0 0 1-.418-.01 24.7 24.7 0 0 0-5.185-2.151.45.45 0 0 1-.309-.29l-1.37-4.041a2.39 2.39 0 0 0-2.262-1.626h-5.384a2.38 2.38 0 0 0-2.261 1.626l-1.371 4.04a.43.43 0 0 1-.31.29 24 24 0 0 0-5.184 2.153.45.45 0 0 1-.427.009l-3.823-1.889a2.39 2.39 0 0 0-2.75.454l-3.814 3.814a2.39 2.39 0 0 0-.454 2.751l1.888 3.823a.45.45 0 0 1-.009.418 24.2 24.2 0 0 0-2.152 5.185.45.45 0 0 1-.29.308L17.31 27.78a2.38 2.38 0 0 0-1.625 2.261v5.385c0 1.026.653 1.934 1.625 2.26l4.04 1.372a.43.43 0 0 1 .291.309 23.4 23.4 0 0 0 1.199 3.296c.1.227 0 .5-.227.6s-.5 0-.6-.228a24 24 0 0 1-1.17-3.187l-3.815-1.299a3.3 3.3 0 0 1-2.242-3.123V30.04c0-1.416.899-2.67 2.242-3.123l3.814-1.299a25 25 0 0 1 2.052-4.948l-1.78-3.614a3.3 3.3 0 0 1 .627-3.796l3.814-3.814a3.3 3.3 0 0 1 3.795-.626l3.614 1.78a24.6 24.6 0 0 1 4.949-2.043l1.298-3.814A3.3 3.3 0 0 1 42.335 2.5h5.384c1.417 0 2.67.899 3.124 2.243l1.299 3.814A25.6 25.6 0 0 1 57.09 10.6l3.614-1.78a3.305 3.305 0 0 1 3.796.626l3.814 3.814a3.3 3.3 0 0 1 .626 3.796l-1.78 3.613a24.6 24.6 0 0 1 2.043 4.95l3.814 1.298a3.3 3.3 0 0 1 2.234 3.123v5.385c0 1.416-.9 2.67-2.234 3.124l-3.814 1.298a25.6 25.6 0 0 1-1.29 3.432.46.46 0 0 1-.408.264z"/><path fill="#e30613" d="M29.06 38.621a.45.45 0 0 1-.427-.309 17.3 17.3 0 0 1-.917-5.575c0-9.525 7.754-17.28 17.28-17.28 9.525 0 17.28 7.755 17.28 17.28 0 1.834-.291 3.641-.854 5.376a.455.455 0 0 1-.863-.282c.536-1.634.808-3.35.808-5.085 0-9.026-7.346-16.371-16.371-16.371-9.026 0-16.372 7.346-16.372 16.371 0 1.807.29 3.587.872 5.285a.446.446 0 0 1-.282.572.4.4 0 0 1-.145.027zM44.996 55.583H25.573a8.64 8.64 0 0 1-5.23-1.78l-6.456-4.975H9.79a2.93 2.93 0 0 0-2.923 2.923 2.934 2.934 0 0 0 2.923 2.924h4.25c.254 0 .454.2.454.454a.45.45 0 0 1-.454.454h-4.25a3.84 3.84 0 0 1-3.831-3.832A3.844 3.844 0 0 1 9.79 47.92h4.25c.1 0 .2.037.281.091l6.584 5.076a7.72 7.72 0 0 0 4.676 1.598h19.423c.254 0 .454.2.454.454a.45.45 0 0 1-.454.454z"/><path fill="#e30613" d="M13.469 80.39a4.1 4.1 0 0 1-1.607-.327 4.2 4.2 0 0 1-1.308-.88 4.1 4.1 0 0 1-.88-1.308 4 4 0 0 1-.327-1.608V64.055c0-.5.036-1 .118-1.49a9.8 9.8 0 0 1 .89-2.823c.217-.445.48-.881.762-1.28l2.543-3.597a.453.453 0 0 1 .635-.108.453.453 0 0 1 .11.635l-2.543 3.596a8.3 8.3 0 0 0-.69 1.162c-.2.4-.373.817-.5 1.244a9.4 9.4 0 0 0-.309 1.308 8.4 8.4 0 0 0-.108 1.353v12.212c0 .436.081.854.254 1.254.163.381.39.726.69 1.017.3.3.636.526 1.026.69.4.163.817.254 1.253.254.254 0 .454.2.454.454a.45.45 0 0 1-.454.454zM80.2 55.583h-4.25a.45.45 0 0 1-.454-.454c0-.254.2-.454.454-.454h4.25a2.93 2.93 0 0 0 2.923-2.924 2.934 2.934 0 0 0-2.924-2.924h-4.095l-6.456 4.976a8.6 8.6 0 0 1-5.23 1.78H44.995a.45.45 0 0 1-.454-.454c0-.254.2-.454.455-.454h19.422c1.68 0 3.342-.563 4.676-1.598L75.678 48a.45.45 0 0 1 .281-.09h4.25a3.832 3.832 0 0 1 0 7.663zM70.366 47.665a.45.45 0 0 1-.373-.19l-3.768-5.34a8.8 8.8 0 0 0-3.133-2.733 8.8 8.8 0 0 0-4.04-.98H30.939a8.9 8.9 0 0 0-4.04.98 8.8 8.8 0 0 0-3.133 2.733l-3.768 5.34a.46.46 0 0 1-.636.108.453.453 0 0 1-.109-.635l3.768-5.34a9.7 9.7 0 0 1 7.918-4.104h28.113a9.704 9.704 0 0 1 7.918 4.104l3.768 5.34a.453.453 0 0 1-.372.717M59.57 80.39H30.412a.45.45 0 0 1-.454-.454c0-.254.2-.454.454-.454h29.156c.255 0 .454.2.454.454a.45.45 0 0 1-.454.454"/><path fill="#e30613" d="M76.513 80.39a.45.45 0 0 1-.454-.454c0-.254.2-.454.454-.454.436 0 .853-.082 1.253-.254.381-.164.727-.39 1.017-.69.3-.3.527-.636.69-1.017.164-.4.254-.818.254-1.254V64.055c0-.454-.036-.908-.1-1.353a9 9 0 0 0-.308-1.308 9 9 0 0 0-.509-1.244c-.2-.4-.436-.799-.69-1.162l-2.542-3.596a.453.453 0 0 1 .109-.636c.2-.145.49-.1.635.11l2.543 3.595a9.522 9.522 0 0 1 1.317 2.66c.145.473.263.954.335 1.444s.118.99.118 1.49v12.212a4.1 4.1 0 0 1-.327 1.608 4.102 4.102 0 0 1-2.188 2.188 4.1 4.1 0 0 1-1.607.327M23.675 87.5h-7.727a2.937 2.937 0 0 1-2.933-2.933v-4.63c0-.255.2-.455.454-.455h4.513c.254 0 .454.2.454.454a.45.45 0 0 1-.454.454h-4.059v4.177c0 1.117.908 2.025 2.025 2.025h7.727a2.027 2.027 0 0 0 2.025-2.025v-4.63c0-.255.2-.455.454-.455s.454.2.454.454v4.631a2.937 2.937 0 0 1-2.933 2.933"/><path fill="#e30613" d="M74.034 87.5h-7.727a2.94 2.94 0 0 1-2.933-2.933v-4.63c0-.255.2-.455.454-.455s.454.2.454.454v4.631c0 1.117.908 2.025 2.025 2.025h7.727a2.027 2.027 0 0 0 2.025-2.025V80.39H72a.45.45 0 0 1-.454-.454c0-.254.2-.454.454-.454h4.513c.254 0 .454.2.454.454v4.631a2.937 2.937 0 0 1-2.933 2.933M22.322 73.67h-7.4a.45.45 0 0 1-.454-.453c0-.254.2-.454.454-.454h6.928c-.236-2.906-2.67-5.203-5.639-5.203h-6.41a.45.45 0 0 1-.454-.454c0-.254.2-.454.454-.454h6.41a6.57 6.57 0 0 1 6.565 6.565.45.45 0 0 1-.454.454M75.06 73.67h-7.4a.45.45 0 0 1-.454-.453 6.57 6.57 0 0 1 6.565-6.565h6.41c.255 0 .454.2.454.454a.45.45 0 0 1-.454.454h-6.41c-2.97 0-5.403 2.297-5.639 5.203h6.928c.254 0 .454.2.454.454a.45.45 0 0 1-.454.454M63.092 63.31H26.881c-.1 0-.2-.036-.282-.09l-3.75-2.897a.45.45 0 0 1-.082-.636.45.45 0 0 1 .636-.082l3.632 2.797h35.903l3.632-2.797a.45.45 0 0 1 .636.082.45.45 0 0 1-.082.636l-3.75 2.896a.45.45 0 0 1-.282.091"/></svg>